<svg xmlns="http://www.w3.org/2000/svg" xmlns:xlink="http://www.w3.org/1999/xlink" width="500" zoomAndPan="magnify" viewBox="0 0 375 374.999991" height="500" preserveAspectRatio="xMidYMid meet" version="1.2"><defs/><g id="3b209b0caa"><rect x="0" width="375" y="0" height="374.999991" style="fill:#ffffff;fill-opacity:1;stroke:none;"/><rect x="0" width="375" y="0" height="374.999991" style="fill:#f6f4f0;fill-opacity:1;stroke:none;"/><g style="fill:#222222;fill-opacity:1;"><g transform="translate(67.192207, 184.49735)"><path style="stroke:none" d="M 47.125 18.1875 C 43.675781 18.1875 40.726562 17.570312 38.28125 16.34375 C 35.832031 15.125 33.96875 13.398438 32.6875 11.171875 C 31.414062 8.953125 30.78125 6.367188 30.78125 3.421875 C 30.78125 2.804688 30.789062 2.175781 30.8125 1.53125 C 30.84375 0.894531 30.914062 0.21875 31.03125 -0.5 C 26.75 -0.550781 22.851562 -1.351562 19.34375 -2.90625 C 15.84375 -4.46875 12.828125 -6.582031 10.296875 -9.25 C 7.765625 -11.925781 5.816406 -15.03125 4.453125 -18.5625 C 3.097656 -22.09375 2.421875 -25.859375 2.421875 -29.859375 C 2.421875 -33.972656 3.128906 -37.804688 4.546875 -41.359375 C 5.960938 -44.921875 7.988281 -48.050781 10.625 -50.75 C 13.269531 -53.445312 16.453125 -55.5625 20.171875 -57.09375 C 23.898438 -58.625 28.046875 -59.390625 32.609375 -59.390625 C 37.171875 -59.390625 41.3125 -58.664062 45.03125 -57.21875 C 48.757812 -55.769531 51.957031 -53.710938 54.625 -51.046875 C 57.300781 -48.378906 59.347656 -45.289062 60.765625 -41.78125 C 62.179688 -38.28125 62.890625 -34.472656 62.890625 -30.359375 L 62.890625 1.75 C 62.890625 4.695312 62.316406 7.421875 61.171875 9.921875 C 60.035156 12.421875 58.300781 14.421875 55.96875 15.921875 C 53.632812 17.429688 50.6875 18.1875 47.125 18.1875 Z M 46.375 6.25 C 47.425781 6.25 48.242188 5.816406 48.828125 4.953125 C 49.410156 4.097656 49.703125 2.972656 49.703125 1.578125 L 49.703125 -12.015625 C 48.535156 -11.015625 47.519531 -9.984375 46.65625 -8.921875 C 45.800781 -7.867188 45.125 -6.769531 44.625 -5.625 C 44.125 -4.488281 43.75 -3.320312 43.5 -2.125 C 43.25 -0.925781 43.125 0.304688 43.125 1.578125 C 43.125 2.585938 43.257812 3.4375 43.53125 4.125 C 43.8125 4.820312 44.21875 5.347656 44.75 5.703125 C 45.28125 6.066406 45.820312 6.25 46.375 6.25 Z M 32.109375 -12.34375 C 32.722656 -12.34375 33.289062 -12.367188 33.8125 -12.421875 C 34.34375 -12.484375 34.890625 -12.566406 35.453125 -12.671875 C 36.453125 -14.179688 37.617188 -15.671875 38.953125 -17.140625 C 40.285156 -18.609375 41.785156 -20.035156 43.453125 -21.421875 C 45.117188 -22.816406 46.953125 -24.128906 48.953125 -25.359375 L 48.953125 -30.78125 C 48.953125 -33.164062 48.550781 -35.382812 47.75 -37.4375 C 46.945312 -39.5 45.804688 -41.28125 44.328125 -42.78125 C 42.859375 -44.289062 41.132812 -45.460938 39.15625 -46.296875 C 37.1875 -47.128906 35.03125 -47.546875 32.6875 -47.546875 C 30.351562 -47.546875 28.195312 -47.113281 26.21875 -46.25 C 24.25 -45.382812 22.523438 -44.144531 21.046875 -42.53125 C 19.578125 -40.925781 18.441406 -39.050781 17.640625 -36.90625 C 16.835938 -34.769531 16.4375 -32.445312 16.4375 -29.9375 C 16.4375 -27.4375 16.8125 -25.128906 17.5625 -23.015625 C 18.3125 -20.898438 19.394531 -19.050781 20.8125 -17.46875 C 22.226562 -15.882812 23.894531 -14.644531 25.8125 -13.75 C 27.726562 -12.863281 29.828125 -12.394531 32.109375 -12.34375 Z M 32.109375 -12.34375 "/></g></g><g style="fill:#222222;fill-opacity:1;"><g transform="translate(127.065391, 184.49735)"><path style="stroke:none" d="M 29.6875 1 C 24.851562 1 20.554688 0.0234375 16.796875 -1.921875 C 13.046875 -3.867188 10.113281 -6.648438 8 -10.265625 C 5.894531 -13.878906 4.84375 -18.1875 4.84375 -23.1875 L 4.84375 -58.390625 L 18.6875 -58.390625 L 18.6875 -22.4375 C 18.6875 -20.269531 19.128906 -18.304688 20.015625 -16.546875 C 20.910156 -14.796875 22.191406 -13.40625 23.859375 -12.375 C 25.523438 -11.351562 27.46875 -10.84375 29.6875 -10.84375 C 31.96875 -10.84375 33.925781 -11.351562 35.5625 -12.375 C 37.207031 -13.40625 38.472656 -14.796875 39.359375 -16.546875 C 40.253906 -18.304688 40.703125 -20.269531 40.703125 -22.4375 L 40.703125 -58.390625 L 54.546875 -58.390625 L 54.546875 -23.1875 C 54.546875 -18.1875 53.472656 -13.878906 51.328125 -10.265625 C 49.191406 -6.648438 46.257812 -3.867188 42.53125 -1.921875 C 38.8125 0.0234375 34.53125 1 29.6875 1 Z M 29.6875 1 "/></g></g><g style="fill:#222222;fill-opacity:1;"><g transform="translate(179.516807, 184.49735)"><path style="stroke:none" d="M 4.34375 0 L 4.34375 -41.125 C 4.34375 -44.34375 5.132812 -47.257812 6.71875 -49.875 C 8.300781 -52.488281 10.441406 -54.5625 13.140625 -56.09375 C 15.835938 -57.625 18.851562 -58.390625 22.1875 -58.390625 L 43.953125 -58.390625 L 43.953125 -46.703125 L 23.9375 -46.703125 C 22.382812 -46.703125 21.0625 -46.144531 19.96875 -45.03125 C 18.882812 -43.925781 18.34375 -42.566406 18.34375 -40.953125 L 18.34375 -32.53125 L 41.125 -32.53125 L 41.125 -20.9375 L 18.34375 -20.9375 L 18.34375 0 Z M 4.34375 0 "/></g></g><g style="fill:#222222;fill-opacity:1;"><g transform="translate(219.126077, 184.49735)"><path style="stroke:none" d="M 5.09375 0 L 5.09375 -58.390625 L 31.78125 -58.390625 C 35.726562 -58.390625 39.328125 -57.523438 42.578125 -55.796875 C 45.828125 -54.078125 48.410156 -51.6875 50.328125 -48.625 C 52.253906 -45.5625 53.21875 -42.03125 53.21875 -38.03125 C 53.21875 -34.300781 52.328125 -30.945312 50.546875 -27.96875 C 48.765625 -25 46.425781 -22.597656 43.53125 -20.765625 L 48.203125 -12.84375 C 48.484375 -12.457031 48.800781 -12.148438 49.15625 -11.921875 C 49.519531 -11.703125 50.007812 -11.59375 50.625 -11.59375 L 55.796875 -11.59375 L 55.796875 0 L 47.625 0 C 45.125 0 42.84375 -0.597656 40.78125 -1.796875 C 38.726562 -2.992188 37.117188 -4.5625 35.953125 -6.5 L 29.6875 -17.59375 C 29.300781 -17.59375 28.898438 -17.59375 28.484375 -17.59375 C 28.066406 -17.59375 27.632812 -17.59375 27.1875 -17.59375 L 19.09375 -17.59375 L 19.09375 0 Z M 19.09375 -29.1875 L 30.1875 -29.1875 C 31.800781 -29.1875 33.300781 -29.535156 34.6875 -30.234375 C 36.082031 -30.929688 37.179688 -31.929688 37.984375 -33.234375 C 38.796875 -34.546875 39.203125 -36.117188 39.203125 -37.953125 C 39.203125 -39.785156 38.785156 -41.351562 37.953125 -42.65625 C 37.117188 -43.96875 36.019531 -44.96875 34.65625 -45.65625 C 33.289062 -46.351562 31.800781 -46.703125 30.1875 -46.703125 L 19.09375 -46.703125 Z M 19.09375 -29.1875 "/></g></g><g style="fill:#222222;fill-opacity:1;"><g transform="translate(67.192207, 246.747346)"><path style="stroke:none" d="M 20.6875 0 C 17.40625 0 14.425781 -0.765625 11.75 -2.296875 C 9.082031 -3.828125 6.957031 -5.882812 5.375 -8.46875 C 3.789062 -11.050781 3 -13.984375 3 -17.265625 C 3 -19.710938 3.539062 -22.003906 4.625 -24.140625 C 5.707031 -26.285156 7.171875 -28.132812 9.015625 -29.6875 C 7.234375 -31.1875 5.828125 -32.960938 4.796875 -35.015625 C 3.765625 -37.078125 3.25 -39.25 3.25 -41.53125 C 3.25 -44.757812 4.023438 -47.640625 5.578125 -50.171875 C 7.140625 -52.703125 9.226562 -54.703125 11.84375 -56.171875 C 14.457031 -57.648438 17.347656 -58.390625 20.515625 -58.390625 L 45.125 -58.390625 L 45.125 -46.703125 L 22.6875 -46.703125 C 21.632812 -46.703125 20.660156 -46.453125 19.765625 -45.953125 C 18.878906 -45.453125 18.171875 -44.785156 17.640625 -43.953125 C 17.109375 -43.117188 16.84375 -42.144531 16.84375 -41.03125 C 16.84375 -39.976562 17.109375 -39.019531 17.640625 -38.15625 C 18.171875 -37.289062 18.878906 -36.625 19.765625 -36.15625 C 20.660156 -35.6875 21.632812 -35.453125 22.6875 -35.453125 L 42.28125 -35.453125 L 42.28125 -23.765625 L 23.109375 -23.765625 C 21.941406 -23.765625 20.882812 -23.488281 19.9375 -22.9375 C 18.988281 -22.382812 18.234375 -21.660156 17.671875 -20.765625 C 17.117188 -19.878906 16.84375 -18.851562 16.84375 -17.6875 C 16.84375 -16.570312 17.117188 -15.554688 17.671875 -14.640625 C 18.234375 -13.722656 18.988281 -13.015625 19.9375 -12.515625 C 20.882812 -12.015625 21.941406 -11.765625 23.109375 -11.765625 L 45.125 -11.765625 L 45.125 0 Z M 20.6875 0 "/></g></g><g style="fill:#222222;fill-opacity:1;"><g transform="translate(108.719461, 246.747346)"><path style="stroke:none" d="M 46.203125 1 C 42.703125 1 39.5625 0.234375 36.78125 -1.296875 C 34 -2.828125 31.800781 -4.953125 30.1875 -7.671875 C 28.582031 -10.398438 27.78125 -13.488281 27.78125 -16.9375 L 27.78125 -42.453125 C 27.78125 -43.335938 27.554688 -44.140625 27.109375 -44.859375 C 26.660156 -45.585938 26.070312 -46.175781 25.34375 -46.625 C 24.625 -47.070312 23.820312 -47.296875 22.9375 -47.296875 C 22.050781 -47.296875 21.242188 -47.070312 20.515625 -46.625 C 19.796875 -46.175781 19.226562 -45.585938 18.8125 -44.859375 C 18.394531 -44.140625 18.1875 -43.335938 18.1875 -42.453125 L 18.1875 0 L 4.5 0 L 4.5 -41.453125 C 4.5 -44.953125 5.289062 -48.035156 6.875 -50.703125 C 8.46875 -53.378906 10.664062 -55.492188 13.46875 -57.046875 C 16.28125 -58.609375 19.4375 -59.390625 22.9375 -59.390625 C 26.5 -59.390625 29.664062 -58.609375 32.4375 -57.046875 C 35.21875 -55.492188 37.414062 -53.378906 39.03125 -50.703125 C 40.644531 -48.035156 41.453125 -44.953125 41.453125 -41.453125 L 41.453125 -15.9375 C 41.453125 -15.039062 41.671875 -14.21875 42.109375 -13.46875 C 42.554688 -12.71875 43.128906 -12.132812 43.828125 -11.71875 C 44.523438 -11.300781 45.289062 -11.09375 46.125 -11.09375 C 47.007812 -11.09375 47.828125 -11.300781 48.578125 -11.71875 C 49.328125 -12.132812 49.925781 -12.71875 50.375 -13.46875 C 50.820312 -14.21875 51.046875 -15.039062 51.046875 -15.9375 L 51.046875 -58.390625 L 64.640625 -58.390625 L 64.640625 -16.9375 C 64.640625 -13.488281 63.832031 -10.398438 62.21875 -7.671875 C 60.601562 -4.953125 58.40625 -2.828125 55.625 -1.296875 C 52.851562 0.234375 49.710938 1 46.203125 1 Z M 46.203125 1 "/></g></g><g style="fill:#222222;fill-opacity:1;"><g transform="translate(171.094357, 246.747346)"><path style="stroke:none" d="M 5.09375 0 L 5.09375 -58.390625 L 26.515625 -58.390625 C 32.691406 -58.390625 38.046875 -57.132812 42.578125 -54.625 C 47.109375 -52.125 50.640625 -48.675781 53.171875 -44.28125 C 55.703125 -39.894531 56.96875 -34.863281 56.96875 -29.1875 C 56.96875 -23.519531 55.703125 -18.488281 53.171875 -14.09375 C 50.640625 -9.695312 47.109375 -6.25 42.578125 -3.75 C 38.046875 -1.25 32.691406 0 26.515625 0 Z M 19.09375 -11.671875 L 26.1875 -11.671875 C 29.414062 -11.671875 32.289062 -12.378906 34.8125 -13.796875 C 37.34375 -15.222656 39.332031 -17.238281 40.78125 -19.84375 C 42.226562 -22.457031 42.953125 -25.570312 42.953125 -29.1875 C 42.953125 -32.800781 42.226562 -35.914062 40.78125 -38.53125 C 39.332031 -41.144531 37.34375 -43.160156 34.8125 -44.578125 C 32.289062 -45.992188 29.414062 -46.703125 26.1875 -46.703125 L 19.09375 -46.703125 Z M 19.09375 -11.671875 "/></g></g><g style="fill:#222222;fill-opacity:1;"><g transform="translate(223.545773, 246.747346)"><path style="stroke:none" d="M 5.421875 0 L 5.421875 -11.671875 L 30.359375 -11.671875 C 31.472656 -11.671875 32.472656 -11.945312 33.359375 -12.5 C 34.253906 -13.0625 34.960938 -13.785156 35.484375 -14.671875 C 36.015625 -15.566406 36.28125 -16.539062 36.28125 -17.59375 C 36.28125 -18.707031 36.015625 -19.707031 35.484375 -20.59375 C 34.960938 -21.488281 34.253906 -22.210938 33.359375 -22.765625 C 32.472656 -23.328125 31.472656 -23.609375 30.359375 -23.609375 L 21.359375 -23.609375 C 17.960938 -23.609375 14.875 -24.273438 12.09375 -25.609375 C 9.3125 -26.941406 7.097656 -28.898438 5.453125 -31.484375 C 3.816406 -34.066406 3 -37.164062 3 -40.78125 C 3 -44.34375 3.773438 -47.429688 5.328125 -50.046875 C 6.890625 -52.660156 9.003906 -54.703125 11.671875 -56.171875 C 14.347656 -57.648438 17.296875 -58.390625 20.515625 -58.390625 L 46.296875 -58.390625 L 46.296875 -46.703125 L 22.109375 -46.703125 C 21.097656 -46.703125 20.175781 -46.453125 19.34375 -45.953125 C 18.507812 -45.453125 17.867188 -44.785156 17.421875 -43.953125 C 16.984375 -43.117188 16.765625 -42.203125 16.765625 -41.203125 C 16.765625 -40.203125 16.984375 -39.296875 17.421875 -38.484375 C 17.867188 -37.679688 18.507812 -37.03125 19.34375 -36.53125 C 20.175781 -36.03125 21.097656 -35.78125 22.109375 -35.78125 L 31.53125 -35.78125 C 35.25 -35.78125 38.484375 -35.070312 41.234375 -33.65625 C 43.992188 -32.238281 46.132812 -30.265625 47.65625 -27.734375 C 49.1875 -25.203125 49.953125 -22.238281 49.953125 -18.84375 C 49.953125 -14.84375 49.160156 -11.4375 47.578125 -8.625 C 45.992188 -5.820312 43.867188 -3.679688 41.203125 -2.203125 C 38.535156 -0.734375 35.585938 0 32.359375 0 Z M 5.421875 0 "/></g></g><g style="fill:#222222;fill-opacity:1;"><g transform="translate(269.325937, 246.747346)"><path style="stroke:none" d="M 11.171875 1 C 8.953125 1 7.050781 0.207031 5.46875 -1.375 C 3.882812 -2.957031 3.09375 -4.832031 3.09375 -7 C 3.09375 -9.226562 3.882812 -11.132812 5.46875 -12.71875 C 7.050781 -14.300781 8.953125 -15.09375 11.171875 -15.09375 C 13.335938 -15.09375 15.210938 -14.300781 16.796875 -12.71875 C 18.390625 -11.132812 19.1875 -9.226562 19.1875 -7 C 19.1875 -5.5625 18.820312 -4.226562 18.09375 -3 C 17.375 -1.78125 16.414062 -0.804688 15.21875 -0.078125 C 14.019531 0.640625 12.671875 1 11.171875 1 Z M 11.171875 1 "/></g></g></g></svg>